# xmcd
#
# Track frame offsets:
#	182
#	9122
#	30855
#	43232
#	63145
#	92392
#	102647
#	119480
#	135162
#	164060
#	185132
#	206505
#	223125
#	236817
#	270527
#
# Disc length: 4189 seconds
# Revision: 0
# Processed by: cddbd v1.5.2PL0 Copyright (c) Steve Scherf et al.
# Submitted via: dBpowerAMP V12.0
#
DISCID=cf105b0f
DTITLE=Eagles - Selected Works: 1972-1999, Disc 3
DYEAR=2000
DGENRE=Country Rock
TTITLE0=One of These Nights (Intro)
TTITLE1=One of These Nights
TTITLE2=Disco Strangler
TTITLE3=Heartache Tonight
TTITLE4=Hotel California
TTITLE5=Born to Boogie
TTITLE6=In the City
TTITLE7=Get Over It
TTITLE8=King of Hollywood
TTITLE9=Too Many Hands
TTITLE10=Life in the Fast Lane
TTITLE11=The Long Run
TTITLE12=Long Run Leftovers
TTITLE13=The Last Resort
TTITLE14=Random Victims Part 3
EXTD=
EXTT0=
EXTT1=
EXTT2=
EXTT3=
EXTT4=
EXTT5=
EXTT6=
EXTT7=
EXTT8=
EXTT9=
EXTT10=
EXTT11=
EXTT12=
EXTT13=
EXTT14=
PLAYORDER=
